<svg width="33" height="33" viewBox="0 0 33 33" fill="none" xmlns="http://www.w3.org/2000/svg">
<path d="M24.0625 22.6875V25.4375C24.0625 25.6208 24.1312 25.7813 24.2687 25.9188C24.4062 26.0563 24.5667 26.125 24.75 26.125C24.9333 26.125 25.0938 26.0563 25.2313 25.9188C25.3688 25.7813 25.4375 25.6208 25.4375 25.4375V22.6875H28.1875C28.3708 22.6875 28.5313 22.6188 28.6688 22.4813C28.8063 22.3438 28.875 22.1833 28.875 22C28.875 21.8167 28.8063 21.6562 28.6688 21.5187C28.5313 21.3812 28.3708 21.3125 28.1875 21.3125H25.4375V18.5625C25.4375 18.3792 25.3688 18.2187 25.2313 18.0812C25.0938 17.9437 24.9333 17.875 24.75 17.875C24.5667 17.875 24.4062 17.9437 24.2687 18.0812C24.1312 18.2187 24.0625 18.3792 24.0625 18.5625V21.3125H21.3125C21.1292 21.3125 20.9687 21.3812 20.8312 21.5187C20.6937 21.6562 20.625 21.8167 20.625 22C20.625 22.1833 20.6937 22.3438 20.8312 22.4813C20.9687 22.6188 21.1292 22.6875 21.3125 22.6875H24.0625ZM24.75 28.875C22.8479 28.875 21.2268 28.2045 19.8866 26.8634C18.5465 25.5223 17.8759 23.9012 17.875 22C17.8741 20.0988 18.5446 18.4777 19.8866 17.1366C21.2286 15.7955 22.8498 15.125 24.75 15.125C26.6502 15.125 28.2718 15.7955 29.6148 17.1366C30.9577 18.4777 31.6278 20.0988 31.625 22C31.6222 23.9012 30.9517 25.5228 29.6134 26.8648C28.275 28.2068 26.6539 28.8768 24.75 28.875ZM5.5 23.375V11C5.5 10.5646 5.59762 10.1521 5.79287 9.7625C5.98812 9.37292 6.25717 9.05208 6.6 8.8L14.85 2.6125C15.1021 2.42917 15.3656 2.29167 15.6406 2.2C15.9156 2.10833 16.2021 2.0625 16.5 2.0625C16.7979 2.0625 17.0844 2.10833 17.3594 2.2C17.6344 2.29167 17.8979 2.42917 18.15 2.6125L26.4688 8.86875C26.6292 8.98333 26.7497 9.13229 26.8304 9.31563C26.911 9.49896 26.9509 9.69375 26.95 9.9C26.95 10.2896 26.818 10.6164 26.554 10.8804C26.29 11.1444 25.9637 11.2759 25.575 11.275C25.4146 11.275 25.2656 11.2521 25.1281 11.2062C24.9906 11.1604 24.8646 11.0917 24.75 11L16.5 4.8125L8.25 11V23.375H13.75C14.1396 23.375 14.4664 23.507 14.7304 23.771C14.9944 24.035 15.1259 24.3613 15.125 24.75C15.1241 25.1387 14.9921 25.4655 14.729 25.7304C14.4659 25.9953 14.1396 26.1268 13.75 26.125H8.25C7.49375 26.125 6.84658 25.856 6.3085 25.3179C5.77042 24.7798 5.50092 24.1322 5.5 23.375Z" fill="#FF5A35"/>
</svg>
