<svg width="16" height="16" viewBox="0 0 16 16" fill="none" xmlns="http://www.w3.org/2000/svg">
<path d="M8.00065 13.0968C7.09998 12.4628 6.05732 12.0588 4.96398 11.9228C4.18855 11.7653 3.39853 11.6909 2.60732 11.7008C2.50608 11.7017 2.40567 11.6825 2.31188 11.6444C2.21809 11.6063 2.13279 11.5499 2.06089 11.4787C1.98899 11.4074 1.93192 11.3226 1.89297 11.2291C1.85403 11.1357 1.83398 11.0354 1.83398 10.9342L1.84798 3.67217C1.84756 3.47732 1.92134 3.28962 2.05434 3.14721C2.18733 3.00481 2.36956 2.91838 2.56398 2.90551C3.36941 2.8895 4.17418 2.96148 4.96398 3.12017C6.05613 3.26108 7.09799 3.66409 8.00065 4.29484M8.00065 13.0968V4.29484M8.00065 13.0968C8.90132 12.4628 9.94398 12.0588 11.0373 11.9228C11.8128 11.7653 12.6028 11.6909 13.394 11.7008C13.4952 11.7017 13.5956 11.6825 13.6894 11.6444C13.7832 11.6063 13.8685 11.5499 13.9404 11.4787C14.0123 11.4074 14.0694 11.3226 14.1083 11.2291C14.1473 11.1357 14.1673 11.0354 14.1673 10.9342L14.1527 3.67217C14.1531 3.47743 14.0794 3.28982 13.9465 3.14743C13.8137 3.00504 13.6316 2.91855 13.4373 2.90551C12.6319 2.8895 11.8271 2.96148 11.0373 3.12017C9.94517 3.26108 8.90332 3.66409 8.00065 4.29484" stroke="#FF5A35" stroke-width="1.5" stroke-linecap="round" stroke-linejoin="round"/>
</svg>
