<svg width="33" height="33" viewBox="0 0 33 33" fill="none" xmlns="http://www.w3.org/2000/svg">
<path d="M10.3125 7.21875V3.09375C10.3125 2.82025 10.4211 2.55794 10.6145 2.36455C10.8079 2.17115 11.0702 2.0625 11.3438 2.0625C11.6173 2.0625 11.8796 2.17115 12.073 2.36455C12.2664 2.55794 12.375 2.82025 12.375 3.09375V7.21875C12.375 7.49225 12.2664 7.75456 12.073 7.94795C11.8796 8.14135 11.6173 8.25 11.3438 8.25C11.0702 8.25 10.8079 8.14135 10.6145 7.94795C10.4211 7.75456 10.3125 7.49225 10.3125 7.21875ZM15.4688 8.25C15.7423 8.25 16.0046 8.14135 16.198 7.94795C16.3914 7.75456 16.5 7.49225 16.5 7.21875V3.09375C16.5 2.82025 16.3914 2.55794 16.198 2.36455C16.0046 2.17115 15.7423 2.0625 15.4688 2.0625C15.1952 2.0625 14.9329 2.17115 14.7395 2.36455C14.5461 2.55794 14.4375 2.82025 14.4375 3.09375V7.21875C14.4375 7.49225 14.5461 7.75456 14.7395 7.94795C14.9329 8.14135 15.1952 8.25 15.4688 8.25ZM19.5938 8.25C19.8673 8.25 20.1296 8.14135 20.323 7.94795C20.5164 7.75456 20.625 7.49225 20.625 7.21875V3.09375C20.625 2.82025 20.5164 2.55794 20.323 2.36455C20.1296 2.17115 19.8673 2.0625 19.5938 2.0625C19.3202 2.0625 19.0579 2.17115 18.8645 2.36455C18.6711 2.55794 18.5625 2.82025 18.5625 3.09375V7.21875C18.5625 7.49225 18.6711 7.75456 18.8645 7.94795C19.0579 8.14135 19.3202 8.25 19.5938 8.25ZM31.9688 15.4688V16.5C31.9683 17.8117 31.4681 19.0739 30.5697 20.0297C29.6714 20.9855 28.4426 21.563 27.1335 21.6446C26.43 23.6344 25.2323 25.4126 23.653 26.8125H26.8125C27.086 26.8125 27.3483 26.9211 27.5417 27.1145C27.7351 27.3079 27.8438 27.5702 27.8438 27.8438C27.8438 28.1173 27.7351 28.3796 27.5417 28.573C27.3483 28.7664 27.086 28.875 26.8125 28.875H4.125C3.8515 28.875 3.58919 28.7664 3.3958 28.573C3.2024 28.3796 3.09375 28.1173 3.09375 27.8438C3.09375 27.5702 3.2024 27.3079 3.3958 27.1145C3.58919 26.9211 3.8515 26.8125 4.125 26.8125H7.28836C5.97261 25.6501 4.91841 24.2218 4.19535 22.6219C3.4723 21.022 3.09683 19.2869 3.09375 17.5312V11.3438C3.09375 11.0702 3.2024 10.8079 3.3958 10.6145C3.58919 10.4211 3.8515 10.3125 4.125 10.3125H26.8125C28.18 10.3125 29.4915 10.8557 30.4585 11.8227C31.4255 12.7897 31.9688 14.1012 31.9688 15.4688ZM25.7812 12.375H5.15625V17.5312C5.16023 19.4675 5.70742 21.3638 6.73561 23.0046C7.7638 24.6453 9.23174 25.9646 10.9725 26.8125H19.965C21.7058 25.9646 23.1737 24.6453 24.2019 23.0046C25.2301 21.3638 25.7773 19.4675 25.7812 17.5312V12.375ZM29.9062 15.4688C29.9061 14.8291 29.7076 14.2053 29.3383 13.6831C28.9689 13.161 28.4468 12.7661 27.8438 12.5529V17.5312C27.8429 18.1788 27.7911 18.8254 27.6891 19.4648C28.3289 19.2758 28.8905 18.885 29.2901 18.3507C29.6897 17.8164 29.9058 17.1672 29.9062 16.5V15.4688Z" fill="#FF5A35"/>
</svg>
