<svg width="33" height="33" viewBox="0 0 33 33" fill="none" xmlns="http://www.w3.org/2000/svg">
<path d="M28.0684 5.36232L5.68207 14.0606L12.3219 16.8188C14.2625 17.6243 15.8044 19.1666 16.6092 21.1074L19.3674 27.7459L28.0684 5.36232ZM30.6081 6.30007L21.9071 28.6864C21.3571 30.1027 19.7744 30.8273 18.3719 30.3089C18.0301 30.1829 17.718 29.9876 17.4553 29.7351C17.1927 29.4826 16.9851 29.1784 16.8457 28.8418L14.0861 22.2006C13.5486 20.9076 12.5207 19.8802 11.2274 19.3433L4.58895 16.5851C3.20845 16.0117 2.5787 14.4181 3.18232 13.0238C3.33062 12.683 3.54485 12.3749 3.81268 12.1172C4.08052 11.8595 4.39667 11.6573 4.74295 11.5223L27.1293 2.82132C27.6156 2.62587 28.1487 2.57763 28.6622 2.6826C29.1757 2.78757 29.6471 3.04111 30.0177 3.41173C30.3883 3.78234 30.6418 4.25369 30.7468 4.7672C30.8518 5.28071 30.8035 5.81374 30.6081 6.30007Z" fill="#FF5A35"/>
</svg>
