<svg width="24" height="24" viewBox="0 0 24 24" fill="none" xmlns="http://www.w3.org/2000/svg">
<path d="M17.5 16.5V18.5C17.5 18.6333 17.55 18.75 17.65 18.85C17.75 18.95 17.8667 19 18 19C18.1333 19 18.25 18.95 18.35 18.85C18.45 18.75 18.5 18.6333 18.5 18.5V16.5H20.5C20.6333 16.5 20.75 16.45 20.85 16.35C20.95 16.25 21 16.1333 21 16C21 15.8667 20.95 15.75 20.85 15.65C20.75 15.55 20.6333 15.5 20.5 15.5H18.5V13.5C18.5 13.3667 18.45 13.25 18.35 13.15C18.25 13.05 18.1333 13 18 13C17.8667 13 17.75 13.05 17.65 13.15C17.55 13.25 17.5 13.3667 17.5 13.5V15.5H15.5C15.3667 15.5 15.25 15.55 15.15 15.65C15.05 15.75 15 15.8667 15 16C15 16.1333 15.05 16.25 15.15 16.35C15.25 16.45 15.3667 16.5 15.5 16.5H17.5ZM18 21C16.6167 21 15.4377 20.5123 14.463 19.537C13.4883 18.5617 13.0007 17.3827 13 16C12.9993 14.6173 13.487 13.4383 14.463 12.463C15.439 11.4877 16.618 11 18 11C19.382 11 20.5613 11.4877 21.538 12.463C22.5147 13.4383 23.002 14.6173 23 16C22.998 17.3827 22.5103 18.562 21.537 19.538C20.5637 20.514 19.3847 21.0013 18 21ZM4 17V8C4 7.68333 4.071 7.38333 4.213 7.1C4.355 6.81667 4.55067 6.58333 4.8 6.4L10.8 1.9C10.9833 1.76667 11.175 1.66667 11.375 1.6C11.575 1.53333 11.7833 1.5 12 1.5C12.2167 1.5 12.425 1.53333 12.625 1.6C12.825 1.66667 13.0167 1.76667 13.2 1.9L19.25 6.45C19.3667 6.53333 19.4543 6.64167 19.513 6.775C19.5717 6.90833 19.6007 7.05 19.6 7.2C19.6 7.48333 19.504 7.721 19.312 7.913C19.12 8.105 18.8827 8.20067 18.6 8.2C18.4833 8.2 18.375 8.18333 18.275 8.15C18.175 8.11667 18.0833 8.06667 18 8L12 3.5L6 8V17H10C10.2833 17 10.521 17.096 10.713 17.288C10.905 17.48 11.0007 17.7173 11 18C10.9993 18.2827 10.9033 18.5203 10.712 18.713C10.5207 18.9057 10.2833 19.0013 10 19H6C5.45 19 4.97933 18.8043 4.588 18.413C4.19667 18.0217 4.00067 17.5507 4 17Z" fill="#4D4D4D"/>
</svg>
