<svg width="33" height="33" viewBox="0 0 33 33" fill="none" xmlns="http://www.w3.org/2000/svg">
<path d="M28.8563 6.07418C28.8258 5.57135 28.6123 5.09709 28.2561 4.74088C27.8998 4.38467 27.4256 4.17115 26.9228 4.14059C25.3011 4.04391 21.1568 4.19215 17.7176 7.63008L17.1053 8.25012H9.58615C9.31425 8.24852 9.04475 8.30103 8.79334 8.4046C8.54193 8.50818 8.31365 8.66074 8.12178 8.8534L3.70029 13.2775C3.42913 13.5484 3.23886 13.8896 3.15083 14.2627C3.06279 14.6358 3.08048 15.0261 3.2019 15.3897C3.32333 15.7533 3.54369 16.0758 3.83824 16.3212C4.1328 16.5665 4.4899 16.7249 4.86947 16.7786L9.82849 17.4708L15.5274 23.1697L16.2197 28.1313C16.2729 28.5109 16.4312 28.8681 16.6768 29.1624C16.9224 29.4567 17.2454 29.6764 17.6093 29.7968C17.8212 29.8676 18.0432 29.9038 18.2667 29.9038C18.5373 29.9044 18.8053 29.8514 19.0553 29.7478C19.3054 29.6443 19.5324 29.4922 19.7233 29.3005L24.1474 24.879C24.3401 24.6872 24.4926 24.4589 24.5962 24.2075C24.6998 23.9561 24.7523 23.6866 24.7507 23.4147V15.8955L25.3656 15.2807C28.8048 11.8414 28.953 7.69711 28.8563 6.07418ZM9.58615 10.3126H15.0428L9.94709 15.407L5.15693 14.7393L9.58615 10.3126ZM19.1781 9.09446C20.169 8.09741 21.3613 7.32329 22.6753 6.8238C23.9892 6.3243 25.3947 6.11093 26.7977 6.19793C26.8881 7.6017 26.6769 9.00854 26.1784 10.3239C25.6799 11.6393 24.9057 12.8327 23.9076 13.824L16.5007 21.2284L11.7724 16.5001L19.1781 9.09446ZM22.6882 23.4147L18.2628 27.8439L17.5938 23.0524L22.6882 17.958V23.4147ZM13.1285 24.6393C12.5484 25.9103 10.6084 28.8751 5.15693 28.8751C4.88343 28.8751 4.62113 28.7665 4.42773 28.5731C4.23433 28.3797 4.12568 28.1174 4.12568 27.8439C4.12568 22.3924 7.09053 20.4524 8.36154 19.871C8.48478 19.8148 8.61788 19.7834 8.75324 19.7787C8.88861 19.7739 9.02358 19.7959 9.15047 19.8433C9.27735 19.8907 9.39365 19.9626 9.49274 20.0549C9.59182 20.1473 9.67175 20.2582 9.72795 20.3815C9.78415 20.5047 9.81553 20.6378 9.82029 20.7732C9.82505 20.9086 9.80311 21.0435 9.75571 21.1704C9.7083 21.2973 9.63638 21.4136 9.54403 21.5127C9.45168 21.6118 9.34072 21.6917 9.21748 21.7479C8.38861 22.1256 6.55943 23.3412 6.23717 26.7636C9.65963 26.4414 10.8778 24.6122 11.2529 23.7833C11.3091 23.6601 11.389 23.5491 11.4881 23.4568C11.5872 23.3644 11.7035 23.2925 11.8304 23.2451C11.9573 23.1977 12.0922 23.1758 12.2276 23.1805C12.363 23.1853 12.4961 23.2167 12.6193 23.2729C12.7426 23.3291 12.8535 23.409 12.9459 23.5081C13.0382 23.6072 13.1101 23.7235 13.1575 23.8503C13.2049 23.9772 13.2269 24.1122 13.2221 24.2476C13.2174 24.3829 13.186 24.516 13.1298 24.6393H13.1285Z" fill="#FFF4F3"/>
</svg>
