<svg width="33" height="33" viewBox="0 0 33 33" fill="none" xmlns="http://www.w3.org/2000/svg">
<path d="M27.1348 14.6309C27.1348 14.4891 27.0188 14.373 26.877 14.373H24.9434C24.8016 14.373 24.6855 14.4891 24.6855 14.6309C24.6855 19.1522 21.0214 22.8164 16.5 22.8164C11.9786 22.8164 8.31445 19.1522 8.31445 14.6309C8.31445 14.4891 8.19844 14.373 8.05664 14.373H6.12305C5.98125 14.373 5.86523 14.4891 5.86523 14.6309C5.86523 20.0675 9.94512 24.5534 15.2109 25.1883V28.4883H10.5284C10.0869 28.4883 9.73242 28.9491 9.73242 29.5195V30.6797C9.73242 30.8215 9.82266 30.9375 9.93223 30.9375H23.0678C23.1773 30.9375 23.2676 30.8215 23.2676 30.6797V29.5195C23.2676 28.9491 22.9131 28.4883 22.4716 28.4883H17.6602V25.2044C22.9872 24.6243 27.1348 20.1126 27.1348 14.6309ZM16.5 20.1094C19.5261 20.1094 21.9785 17.6859 21.9785 14.6953V7.47656C21.9785 4.48594 19.5261 2.0625 16.5 2.0625C13.4739 2.0625 11.0215 4.48594 11.0215 7.47656V14.6953C11.0215 17.6859 13.4739 20.1094 16.5 20.1094ZM13.4707 7.47656C13.4707 5.8459 14.821 4.51172 16.5 4.51172C18.179 4.51172 19.5293 5.8459 19.5293 7.47656V14.6953C19.5293 16.326 18.179 17.6602 16.5 17.6602C14.821 17.6602 13.4707 16.326 13.4707 14.6953V7.47656Z" fill="#FF5A35"/>
</svg>
