<svg width="16" height="16" viewBox="0 0 16 16" fill="none" xmlns="http://www.w3.org/2000/svg">
<path d="M3.90625 6.71875C4.11307 6.71875 4.28125 6.88693 4.28125 7.09375C4.28125 9.14787 5.94588 10.8125 8 10.8125C10.0541 10.8125 11.7188 9.14787 11.7188 7.09375C11.7188 6.88693 11.8869 6.71875 12.0938 6.71875H13.0312C13.2381 6.71875 13.4062 6.88693 13.4062 7.09375C13.4062 9.80361 11.4125 12.0454 8.8125 12.4385V13.5625H10.8955C11.3041 13.5626 11.5312 13.9622 11.5312 14.3125V14.875C11.5312 14.9608 11.5041 15.0467 11.4502 15.1162C11.3963 15.1857 11.3046 15.2499 11.1846 15.25H4.81543C4.69537 15.2499 4.6037 15.1857 4.5498 15.1162C4.49594 15.0467 4.46875 14.9608 4.46875 14.875V14.3125C4.46875 13.9622 4.69594 13.5626 5.10449 13.5625H7.125V12.4287C4.55505 12.0109 2.59375 9.78136 2.59375 7.09375C2.59375 6.88693 2.76193 6.71875 2.96875 6.71875H3.90625ZM8 0.75C9.60246 0.75 10.9062 2.03414 10.9062 3.625V7.125C10.9062 8.71586 9.60246 10 8 10C6.39754 10 5.09375 8.71586 5.09375 7.125V3.625C5.09375 2.03414 6.39754 0.75 8 0.75ZM8 2.4375C7.31961 2.4375 6.78125 2.9768 6.78125 3.625V7.125C6.78125 7.7732 7.31961 8.3125 8 8.3125C8.68039 8.3125 9.21875 7.7732 9.21875 7.125V3.625C9.21875 2.9768 8.68039 2.4375 8 2.4375Z" fill="#FF5A35" stroke="#FF5A35" stroke-width="0.5"/>
</svg>
