<svg width="33" height="33" viewBox="0 0 33 33" fill="none" xmlns="http://www.w3.org/2000/svg">
<path d="M27.5855 27.8438V5.15625M5.41504 7.447V25.5475C5.41609 25.9185 5.52088 26.2819 5.71757 26.5965C5.91425 26.9111 6.19499 27.1645 6.52808 27.328C6.86117 27.4914 7.23334 27.5585 7.60254 27.5216C7.97174 27.4847 8.32327 27.3453 8.61741 27.1191L21.1478 17.3731C21.396 17.1794 21.5946 16.9295 21.7274 16.644C21.8602 16.3586 21.9233 16.0457 21.9117 15.7311C21.9 15.4164 21.8138 15.1091 21.6602 14.8342C21.5066 14.5594 21.29 14.3249 21.0282 14.1501L8.49779 5.797C8.19866 5.6003 7.85201 5.48796 7.49437 5.47181C7.13674 5.45566 6.78137 5.53631 6.46573 5.70525C6.1501 5.87418 5.8859 6.12516 5.70098 6.4317C5.51606 6.73825 5.41727 7.08901 5.41504 7.447Z" stroke="#FF5A35" stroke-width="2" stroke-linecap="round" stroke-linejoin="round"/>
</svg>
