<svg width="18" height="19" viewBox="0 0 18 19" fill="none" xmlns="http://www.w3.org/2000/svg">
<path d="M13.0003 14.5566C13.0003 15.4699 12.5788 16.3457 11.8286 16.9915C11.0784 17.6372 10.0609 18 9 18C7.93906 18 6.92158 17.6372 6.17138 16.9915C5.42119 16.3457 4.99973 15.4699 4.99973 14.5566M1.99953 14.5566C1.82913 14.5565 1.66158 14.519 1.51277 14.4475C1.36397 14.376 1.23885 14.273 1.14928 14.1482C1.05972 14.0234 1.00868 13.881 1.00101 13.7345C0.993346 13.588 1.0293 13.4422 1.10547 13.311L2.9996 10.0484V7.66984C2.9996 4.4606 5.54977 1.76443 9 1C12.4502 1.76443 15.0004 4.4606 15.0004 7.66984V10.0492L16.8945 13.311C16.9707 13.4422 17.0067 13.588 16.999 13.7345C16.9913 13.881 16.9403 14.0234 16.8507 14.1482C16.7612 14.273 16.636 14.376 16.4872 14.4475C16.3384 14.519 16.1709 14.5565 16.0005 14.5566H1.99953Z" stroke="#4D4D4D" stroke-width="1.5" stroke-linecap="round" stroke-linejoin="round"/>
</svg>
