<svg width="24" height="24" viewBox="0 0 24 24" fill="none" xmlns="http://www.w3.org/2000/svg">
<path d="M12 13V19.4M11.6 9.0504C11.728 9.01733 11.8613 9.00053 12 9C12.2442 8.99994 12.4852 9.05578 12.7045 9.16326C12.9238 9.27074 13.1156 9.42699 13.2652 9.62004C13.4148 9.8131 13.5182 10.0378 13.5675 10.277C13.6168 10.5162 13.6107 10.7635 13.5496 11M4 5L20 21M15.9672 8.2C16.4952 8.896 16.8 9.7184 16.8 10.6C16.8 11.4816 16.4952 12.304 15.9672 13M8.032 13C7.5048 12.304 7.2 11.4816 7.2 10.6C7.2 10.0368 7.3248 9.4976 7.552 9M18.6528 6.6C19.504 7.744 20 9.12 20 10.6C20 12.08 19.504 13.456 18.6528 14.6M5.3472 6.6C4.496 7.744 4 9.12 4 10.6C4 12.08 4.496 13.456 5.3472 14.6" stroke="#FF5A35" stroke-width="1.5" stroke-linecap="round" stroke-linejoin="round"/>
</svg>
