<svg width="33" height="33" viewBox="0 0 33 33" fill="none" xmlns="http://www.w3.org/2000/svg">
<path d="M10.3127 7.4252C9.54688 7.4252 8.81244 7.72941 8.27092 8.27092C7.72941 8.81244 7.4252 9.54688 7.4252 10.3127V22.6877C7.4252 24.2816 8.7188 25.5752 10.3127 25.5752H22.6877C23.4535 25.5752 24.188 25.271 24.7295 24.7295C25.271 24.188 25.5752 23.4535 25.5752 22.6877V19.3877C25.5752 19.0595 25.7056 18.7447 25.9377 18.5127C26.1697 18.2806 26.4845 18.1502 26.8127 18.1502C27.1409 18.1502 27.4557 18.2806 27.6877 18.5127C27.9198 18.7447 28.0502 19.0595 28.0502 19.3877V22.6877C28.0502 24.1099 27.4852 25.4739 26.4796 26.4796C25.4739 27.4852 24.1099 28.0502 22.6877 28.0502H10.3127C8.89047 28.0502 7.5265 27.4852 6.52084 26.4796C5.51517 25.4739 4.9502 24.1099 4.9502 22.6877V10.3127C4.9502 8.89047 5.51517 7.5265 6.52084 6.52084C7.5265 5.51517 8.89047 4.9502 10.3127 4.9502H13.6127C13.9409 4.9502 14.2557 5.08057 14.4877 5.31265C14.7198 5.54473 14.8502 5.85949 14.8502 6.1877C14.8502 6.5159 14.7198 6.83066 14.4877 7.06274C14.2557 7.29482 13.9409 7.4252 13.6127 7.4252H10.3127ZM17.3252 6.1877C17.3252 5.85949 17.4556 5.54473 17.6877 5.31265C17.9197 5.08057 18.2345 4.9502 18.5627 4.9502H26.8127C27.1409 4.9502 27.4557 5.08057 27.6877 5.31265C27.9198 5.54473 28.0502 5.85949 28.0502 6.1877V14.4377C28.0502 14.7659 27.9198 15.0807 27.6877 15.3127C27.4557 15.5448 27.1409 15.6752 26.8127 15.6752C26.4845 15.6752 26.1697 15.5448 25.9377 15.3127C25.7056 15.0807 25.5752 14.7659 25.5752 14.4377V9.1742L19.4372 15.3122C19.3239 15.4338 19.1873 15.5313 19.0355 15.5989C18.8837 15.6666 18.7198 15.7029 18.5537 15.7059C18.3875 15.7088 18.2224 15.6782 18.0684 15.616C17.9143 15.5538 17.7743 15.4611 17.6568 15.3436C17.5393 15.2261 17.4466 15.0861 17.3844 14.932C17.3222 14.7779 17.2916 14.6129 17.2945 14.4467C17.2975 14.2806 17.3338 14.1167 17.4015 13.9649C17.4691 13.8131 17.5666 13.6765 17.6882 13.5632L23.8262 7.4252H18.5627C18.2345 7.4252 17.9197 7.29482 17.6877 7.06274C17.4556 6.83066 17.3252 6.5159 17.3252 6.1877Z" fill="white"/>
</svg>
