<svg width="33" height="33" viewBox="0 0 33 33" fill="none" xmlns="http://www.w3.org/2000/svg">
<path d="M9.625 7.125H12.375C13.0643 7.125 13.6481 7.36795 14.1406 7.86035C14.6332 8.35288 14.8758 8.93676 14.875 9.625V23.375C14.875 24.0645 14.6323 24.6491 14.1406 25.1416C13.6493 25.6336 13.0651 25.8758 12.375 25.875H9.625C8.93552 25.875 8.35188 25.6322 7.86035 25.1406C7.36902 24.6492 7.12591 24.0654 7.125 23.375V9.625C7.125 8.93566 7.36795 8.35191 7.86035 7.86035C8.2914 7.43009 8.79228 7.19045 9.37207 7.13672L9.625 7.125ZM20.625 7.125H23.375C24.0643 7.125 24.6481 7.36795 25.1406 7.86035C25.6332 8.35288 25.8758 8.93676 25.875 9.625V23.375C25.875 24.0645 25.6323 24.6491 25.1406 25.1416C24.6493 25.6336 24.0651 25.8758 23.375 25.875H20.625C19.9355 25.875 19.3519 25.6322 18.8604 25.1406C18.369 24.6492 18.1259 24.0654 18.125 23.375V9.625C18.125 8.93566 18.368 8.35191 18.8604 7.86035C19.2914 7.43009 19.7923 7.19045 20.3721 7.13672L20.625 7.125ZM9.375 23.625H12.625V9.375H9.375V23.625ZM20.375 23.625H23.625V9.375H20.375V23.625Z" fill="#FFF4F3" stroke="#FFF4F3" stroke-width="0.5"/>
</svg>
