<svg width="24" height="24" viewBox="0 0 24 24" fill="none" xmlns="http://www.w3.org/2000/svg">
<path d="M15 8H15.01M12 21H6C5.20435 21 4.44129 20.6839 3.87868 20.1213C3.31607 19.5587 3 18.7956 3 18V6C3 5.20435 3.31607 4.44129 3.87868 3.87868C4.44129 3.31607 5.20435 3 6 3H18C18.7956 3 19.5587 3.31607 20.1213 3.87868C20.6839 4.44129 21 5.20435 21 6V12" stroke="#FF5A35" stroke-width="2" stroke-linecap="round" stroke-linejoin="round"/>
<path d="M3 15.9998L8 10.9998C8.928 10.1068 10.072 10.1068 11 10.9998L14.993 14.9928" stroke="#FF5A35" stroke-width="2" stroke-linecap="round" stroke-linejoin="round"/>
<path d="M14 14.0002L15 13.0002C15.47 12.5482 15.995 12.3252 16.52 12.3302M19 22.5002C19.2053 21.6514 19.6406 20.8757 20.2581 20.2582C20.8755 19.6408 21.6513 19.2055 22.5 19.0002C21.6513 18.7948 20.8755 18.3595 20.2581 17.7421C19.6406 17.1246 19.2053 16.3489 19 15.5002C18.7947 16.3489 18.3594 17.1246 17.7419 17.7421C17.1245 18.3595 16.3487 18.7948 15.5 19.0002C16.3487 19.2055 17.1245 19.6408 17.7419 20.2582C18.3594 20.8757 18.7947 21.6514 19 22.5002Z" stroke="#FF5A35" stroke-width="2" stroke-linecap="round" stroke-linejoin="round"/>
</svg>
