<svg width="33" height="33" viewBox="0 0 33 33" fill="none" xmlns="http://www.w3.org/2000/svg">
<path d="M9.84473 3.87744C10.7183 3.87504 11.5773 4.1039 12.334 4.54053L25.6172 12.1587L25.7432 12.23V12.3462C26.4385 12.7767 27.0184 13.3717 27.4277 14.0815C27.8614 14.8338 28.0898 15.6869 28.0898 16.5552C28.0898 17.4235 27.8614 18.2766 27.4277 19.0288C26.9939 19.7811 26.3697 20.4063 25.6182 20.8413L25.6172 20.8423L12.335 28.4595C11.6764 28.8398 10.9405 29.0629 10.1846 29.1138L9.85938 29.1255C8.54591 29.1255 7.28619 28.6031 6.35742 27.6743C5.42865 26.7455 4.90625 25.4858 4.90625 24.1724V8.88232C4.89702 8.00953 5.11882 7.14974 5.54883 6.39014C5.97944 5.62965 6.60403 4.99641 7.3584 4.55518C8.11281 4.114 8.97079 3.87992 9.84473 3.87744ZM9.85742 7.12549C9.55864 7.13051 9.26588 7.20935 9.00488 7.35498C8.74746 7.50432 8.53359 7.71831 8.38477 7.97607C8.23534 8.23494 8.1562 8.52874 8.15625 8.82764V24.1724C8.1562 24.4713 8.23535 24.7651 8.38477 25.0239C8.53394 25.2824 8.74857 25.4966 9.00684 25.646C9.26685 25.7933 9.56055 25.8716 9.85938 25.8716C10.1582 25.8715 10.4519 25.7934 10.7119 25.646L23.9922 17.9204L24.3105 17.7339C24.4292 17.6216 24.5338 17.4947 24.6162 17.3521C24.7657 17.0933 24.8447 16.7993 24.8447 16.5005C24.8447 16.2016 24.7657 15.9078 24.6162 15.6489C24.4668 15.3902 24.2519 15.1753 23.9932 15.0259V15.0249L10.7148 7.35596L10.5117 7.25928C10.304 7.17584 10.0824 7.13053 9.85742 7.12549Z" fill="#FFF4F3" stroke="#FFF4F3" stroke-width="0.5"/>
</svg>
