<svg width="16" height="16" viewBox="0 0 16 16" fill="none" xmlns="http://www.w3.org/2000/svg">
<g clip-path="url(#clip0_607_92)">
<path d="M9 11.25C9 11.4478 8.94135 11.6411 8.83147 11.8056C8.72159 11.97 8.56541 12.0982 8.38269 12.1739C8.19996 12.2496 7.99889 12.2694 7.80491 12.2308C7.61093 12.1922 7.43275 12.097 7.2929 11.9571C7.15304 11.8173 7.0578 11.6391 7.01922 11.4451C6.98063 11.2511 7.00044 11.05 7.07612 10.8673C7.15181 10.6846 7.27998 10.5284 7.44443 10.4185C7.60888 10.3086 7.80222 10.25 8 10.25C8.26522 10.25 8.51957 10.3554 8.70711 10.5429C8.89465 10.7304 9 10.9848 9 11.25ZM14.75 8C14.75 9.33502 14.3541 10.6401 13.6124 11.7501C12.8707 12.8601 11.8165 13.7253 10.5831 14.2362C9.34971 14.7471 7.99251 14.8808 6.68314 14.6203C5.37377 14.3599 4.17104 13.717 3.22703 12.773C2.28303 11.829 1.64015 10.6262 1.3797 9.31686C1.11925 8.00749 1.25292 6.65029 1.76382 5.41689C2.27471 4.18349 3.13987 3.12928 4.2499 2.38758C5.35994 1.64588 6.66498 1.25 8 1.25C9.7896 1.25199 11.5053 1.96378 12.7708 3.22922C14.0362 4.49466 14.748 6.2104 14.75 8ZM13.25 8C13.25 6.96165 12.9421 5.94661 12.3652 5.08326C11.7883 4.2199 10.9684 3.54699 10.0091 3.14963C9.04978 2.75227 7.99418 2.6483 6.97578 2.85088C5.95738 3.05345 5.02192 3.55346 4.28769 4.28769C3.55347 5.02191 3.05345 5.95738 2.85088 6.97578C2.64831 7.99418 2.75228 9.04978 3.14964 10.0091C3.547 10.9684 4.2199 11.7883 5.08326 12.3652C5.94662 12.9421 6.96165 13.25 8 13.25C9.39193 13.2485 10.7264 12.6949 11.7107 11.7107C12.6949 10.7264 13.2485 9.39193 13.25 8ZM8 4C6.48375 4 5.25 5.12125 5.25 6.5V6.75C5.25 6.94891 5.32902 7.13968 5.46967 7.28033C5.61032 7.42098 5.80109 7.5 6 7.5C6.19892 7.5 6.38968 7.42098 6.53033 7.28033C6.67099 7.13968 6.75 6.94891 6.75 6.75V6.5C6.75 5.94875 7.3125 5.5 8 5.5C8.6875 5.5 9.25 5.94875 9.25 6.5C9.25 7.05125 8.6875 7.5 8 7.5C7.80109 7.5 7.61032 7.57902 7.46967 7.71967C7.32902 7.86032 7.25 8.05109 7.25 8.25V8.75C7.24956 8.9353 7.31772 9.1142 7.44135 9.25222C7.56498 9.39024 7.73533 9.47761 7.91956 9.49748C8.10378 9.51736 8.28885 9.46833 8.43907 9.35985C8.58929 9.25138 8.69404 9.09113 8.73313 8.91C9.89438 8.6175 10.75 7.64813 10.75 6.5C10.75 5.12125 9.51625 4 8 4Z" fill="#FFF4F3"/>
</g>
<defs>
<clipPath id="clip0_607_92">
<rect width="16" height="16" fill="white"/>
</clipPath>
</defs>
</svg>
