<svg width="33" height="33" viewBox="0 0 33 33" fill="none" xmlns="http://www.w3.org/2000/svg">
<path fill-rule="evenodd" clip-rule="evenodd" d="M11.6463 3.39632C11.8396 3.2032 12.1017 3.09473 12.375 3.09473C12.6483 3.09473 12.9104 3.2032 13.1037 3.39632L15.8537 6.14632C15.9978 6.29054 16.0959 6.47421 16.1356 6.67413C16.1753 6.87406 16.1549 7.08126 16.0769 7.26959C15.9989 7.45791 15.8669 7.61891 15.6975 7.73223C15.528 7.84556 15.3288 7.90614 15.125 7.90632H12.375C10.0958 7.90632 7.90994 8.81173 6.2983 10.4234C4.68666 12.035 3.78125 14.2209 3.78125 16.5001C3.78125 18.7793 4.68666 20.9651 6.2983 22.5768C7.90994 24.1884 10.0958 25.0938 12.375 25.0938H13.0625C13.336 25.0938 13.5983 25.2025 13.7917 25.3959C13.9851 25.5893 14.0938 25.8516 14.0938 26.1251C14.0938 26.3986 13.9851 26.6609 13.7917 26.8543C13.5983 27.0477 13.336 27.1563 13.0625 27.1563H12.375C9.54879 27.1563 6.83833 26.0336 4.83989 24.0352C2.84146 22.0367 1.71875 19.3263 1.71875 16.5001C1.71875 13.6739 2.84146 10.9634 4.83989 8.96496C6.83833 6.96653 9.54879 5.84382 12.375 5.84382H12.6362L11.6463 4.85382C11.4531 4.66046 11.3447 4.39835 11.3447 4.12507C11.3447 3.85179 11.4531 3.58968 11.6463 3.39632ZM18.9062 6.87507C18.9062 6.60156 19.0149 6.33926 19.2083 6.14587C19.4017 5.95247 19.664 5.84382 19.9375 5.84382H20.625C23.4512 5.84382 26.1617 6.96653 28.1601 8.96496C30.1585 10.9634 31.2812 13.6739 31.2812 16.5001C31.2812 19.3263 30.1585 22.0367 28.1601 24.0352C26.1617 26.0336 23.4512 27.1563 20.625 27.1563H20.3638L21.3538 28.1463C21.4551 28.2407 21.5363 28.3546 21.5927 28.4811C21.6491 28.6076 21.6794 28.7441 21.6818 28.8826C21.6843 29.0211 21.6588 29.1586 21.6069 29.287C21.5551 29.4154 21.4779 29.5321 21.3799 29.63C21.282 29.7279 21.1654 29.8051 21.0369 29.857C20.9085 29.9089 20.771 29.9343 20.6325 29.9319C20.4941 29.9294 20.3575 29.8991 20.231 29.8428C20.1045 29.7864 19.9907 29.7051 19.8962 29.6038L17.1463 26.8538C17.0022 26.7096 16.9041 26.5259 16.8644 26.326C16.8247 26.1261 16.8451 25.9189 16.9231 25.7305C17.0011 25.5422 17.1331 25.3812 17.3025 25.2679C17.472 25.1546 17.6712 25.094 17.875 25.0938H20.625C22.9042 25.0938 25.0901 24.1884 26.7017 22.5768C28.3133 20.9651 29.2188 18.7793 29.2188 16.5001C29.2188 14.2209 28.3133 12.035 26.7017 10.4234C25.0901 8.81173 22.9042 7.90632 20.625 7.90632H19.9375C19.664 7.90632 19.4017 7.79767 19.2083 7.60427C19.0149 7.41088 18.9062 7.14857 18.9062 6.87507Z" fill="#FF5A35"/>
</svg>
