<svg width="16" height="16" viewBox="0 0 16 16" fill="none" xmlns="http://www.w3.org/2000/svg">
<path d="M5.66571 3.40784L7.23971 6.87064L10.7025 8.44465L7.23971 10.0186L5.66571 13.4814L4.09171 10.0186L0.628906 8.44465L4.09171 6.87064L5.66571 3.40784ZM5.66571 6.44881L5.03611 7.81505L3.66988 8.44465L5.03611 9.07425L5.66571 10.4405L6.29531 9.07425L7.66154 8.44465L6.29531 7.81505L5.66571 6.44881ZM11.9617 6.55584L11.1684 4.83074L9.44331 4.03744L11.1684 3.25044L11.9617 1.51904L12.7487 3.25044L14.4801 4.03744L12.7487 4.83074L11.9617 6.55584ZM11.9617 15.3702L11.1684 13.6451L9.44331 12.8518L11.1684 12.0648L11.9617 10.3334L12.7487 12.0648L14.4801 12.8518L12.7487 13.6451L11.9617 15.3702Z" fill="#FF5A35"/>
</svg>
