<svg width="16" height="16" viewBox="0 0 16 16" fill="none" xmlns="http://www.w3.org/2000/svg">
<path d="M7.5 4.9C8.41975 4.9 8.8793 4.9 9.164 4.614C9.45 4.32865 9.45 3.86975 9.45 2.95C9.45 2.03025 9.45 1.5707 9.164 1.286C8.87865 1 8.41975 1 7.5 1C6.58025 1 6.1207 1 5.836 1.286C5.55 1.57135 5.55 2.0309 5.55 2.95C5.55 3.86975 5.55 4.3293 5.836 4.614C6.12135 4.9 6.58025 4.9 7.5 4.9ZM7.5 4.9V5.55M2.95 10.1C2.03025 10.1 1.5707 10.1 1.286 10.386C1 10.6713 1 11.1309 1 12.05C1 12.9697 1 13.4293 1.286 13.714C1.57135 14 2.03025 14 2.95 14C3.86975 14 4.3293 14 4.614 13.714C4.9 13.4286 4.9 12.9697 4.9 12.05C4.9 11.1302 4.9 10.6707 4.614 10.386C4.32865 10.1 3.86975 10.1 2.95 10.1ZM2.95 10.1V9.45C2.95 8.8442 2.95 8.5413 3.0657 8.30275C3.2191 7.98425 3.51485 7.73075 3.886 7.5988C4.1655 7.5 4.51845 7.5 5.225 7.5C5.93155 7.5 6.2845 7.5 6.564 7.4012C6.9358 7.26925 7.2309 7.01575 7.3843 6.69725C7.5 6.4587 7.5 6.1558 7.5 5.55M12.05 10.1C11.1302 10.1 10.6707 10.1 10.386 10.386C10.1 10.6713 10.1 11.1309 10.1 12.05C10.1 12.9697 10.1 13.4293 10.386 13.714C10.6713 14 11.1309 14 12.05 14C12.9691 14 13.4286 14 13.714 13.714C14 13.4286 14 12.9691 14 12.05C14 11.1309 14 10.6713 13.714 10.386C13.4286 10.1 12.9697 10.1 12.05 10.1ZM12.05 10.1V9.45C12.05 8.8442 12.05 8.5413 11.9343 8.30275C11.7809 7.98425 11.4851 7.73075 11.114 7.5988C10.8345 7.5 10.4815 7.5 9.775 7.5C9.06845 7.5 8.7155 7.5 8.436 7.4012C8.0642 7.26925 7.7691 7.01575 7.6157 6.69725C7.5 6.4587 7.5 6.1558 7.5 5.55" stroke="#FF5A35" stroke-linecap="round" stroke-linejoin="round"/>
</svg>
