<svg width="100" height="100" viewBox="0 0 100 100" fill="none" xmlns="http://www.w3.org/2000/svg">
<path d="M36.459 41.6667C36.459 38.0752 37.8857 34.6308 40.4252 32.0913C42.9648 29.5517 46.4092 28.125 50.0007 28.125C53.5921 28.125 57.0365 29.5517 59.5761 32.0913C62.1156 34.6308 63.5423 38.0752 63.5423 41.6667C63.5423 45.2581 62.1156 48.7025 59.5761 51.2421C57.0365 53.7816 53.5921 55.2083 50.0007 55.2083C46.4092 55.2083 42.9648 53.7816 40.4252 51.2421C37.8857 48.7025 36.459 45.2581 36.459 41.6667Z" fill="#FF5A35"/>
<path fill-rule="evenodd" clip-rule="evenodd" d="M15.7252 36.9875C16.4183 28.6115 20.2345 20.802 26.4167 15.1083C32.599 9.41458 40.6955 6.25274 49.1002 6.25H50.9002C59.3048 6.25274 67.4014 9.41458 73.5837 15.1083C79.7659 20.802 83.5821 28.6115 84.2752 36.9875C85.0443 46.3392 82.1572 55.6248 76.221 62.8917L56.2502 87.3167C55.4932 88.2431 54.5398 88.9897 53.4589 89.5024C52.3779 90.0151 51.1965 90.2811 50.0002 90.2811C48.8038 90.2811 47.6224 90.0151 46.5415 89.5024C45.4606 88.9897 44.5071 88.2431 43.7502 87.3167L23.7835 62.8917C17.8459 55.6254 14.9573 46.3398 15.7252 36.9875ZM50.0002 21.875C44.7511 21.875 39.717 23.9602 36.0054 27.6718C32.2937 31.3835 30.2085 36.4176 30.2085 41.6667C30.2085 46.9157 32.2937 51.9498 36.0054 55.6615C39.717 59.3731 44.7511 61.4583 50.0002 61.4583C55.2493 61.4583 60.2833 59.3731 63.995 55.6615C67.7067 51.9498 69.7919 46.9157 69.7919 41.6667C69.7919 36.4176 67.7067 31.3835 63.995 27.6718C60.2833 23.9602 55.2493 21.875 50.0002 21.875Z" fill="#FF5A35"/>
</svg>
